<svg xmlns="http://www.w3.org/2000/svg" viewBox="0 0 100 100"><path fill="#646cff" d="M85.7,2.1l-6.3,21.5c-0.1,0.4-0.4,0.7-0.8,0.8L26,45.9c-0.4,0.1-0.8-0.1-1-0.4L2.1,14.3c-0.2-0.4,0-0.8,0.4-1l21.5-6.3c0.4-0.1,0.8,0.1,1,0.4l1.8,3.2l53.6-15.7C81.1,4.7,81.6,4.9,81.8,5.4l3.5,6.1C85.5,12,85.3,12.5,84.8,12.7L42.2,26.4l20.1,6.9l22.1-6.4c0.4-0.1,0.8,0.1,1,0.4l2.4,4.2c0.2,0.4,0,0.8-0.4,1L66.7,40.9l-2.2,0.6c-0.4,0.1-0.7,0.4-0.8,0.8L57.4,63.7c-0.1,0.4,0.1,0.8,0.4,1l11.4,3.3c0.4,0.1,0.8-0.1,1-0.4l21.5-6.3c0.4-0.1,0.8,0.1,1,0.4l2.4,4.2c0.2,0.4,0,0.8-0.4,1L31,97.9c-0.4,0.1-0.8-0.1-1-0.4L2.1,85.7C1.9,85.3,2.1,84.8,2.6,84.7l53.6-15.7l-3.5-6.1c-0.2-0.4-0.7-0.5-1.1-0.4L29.5,69.4l-11.4-3.3c-0.4-0.1-0.8,0.1-1,0.4l-6.3,21.5c-0.1,0.4,0.1,0.8,0.4,1l11.4,3.3c0.4,0.1,0.8-0.1,1-0.4l6.3-21.5c0.1-0.4,0.4-0.7,0.8-0.8l52.6-15.3c0.4-0.1,0.8,0.1,1,0.4l2.4,4.2c0.2,0.4,0,0.8-0.4,1l-53.6,15.7c-0.4,0.1-0.8-0.1-1-0.4l-3.5-6.1c-0.2-0.4-0.7-0.5-1.1-0.4l-22.1,6.4c-0.4,0.1-0.8-0.1-1-0.4l-2.4-4.2c-0.2-0.4,0-0.8,0.4-1L53.3,42.6c0.4-0.1,0.7-0.4,0.8-0.8l6.3-21.5c0.1-0.4-0.1-0.8-0.4-1L48.6,16c-0.4-0.1-0.8,0.1-1,0.4l-22.1,6.4c-0.4,0.1-0.8-0.1-1-0.4l-2.4-4.2c-0.2-0.4,0-0.8,0.4-1l6.3-21.5c0.1-0.4,0.4-0.7,0.8-0.8l11.4-3.3c0.4-0.1,0.8,0.1,1,0.4l3.5,6.1c0.2,0.4,0.7,0.5,1.1,0.4l22.1-6.4c0.4-0.1,0.8,0.1,1,0.4l2.4,4.2c0.2,0.4,0,0.8-0.4,1L14.3,25.9c-0.4,0.1-0.8-0.1-1-0.4l-6.3-21.5C6.9,3.6,7.1,3.1,7.6,3l22.1-6.4c0.4-0.1,0.8,0.1,1,0.4l6.3,21.5c0.1,0.4,0.4,0.7,0.8,0.8L81.8,25.9c0.4,0.1,0.8-0.1,1-0.4l3.5-6.1c0.2-0.4,0-0.8-0.4-1L26,2.1C25.6,2,25.1,2.2,24.9,2.6L14.3,25.9c-0.2,0.4-0.7,0.5-1.1,0.4L2.6,14.3C2.1,14.2,1.9,14.7,2.1,15.1l10.6,23.3c0.2,0.4,0.7,0.5,1.1,0.4l10.6-3.1c0.4-0.1,0.8,0.1,1,0.4l10.6,23.3c0.2,0.4,0.7,0.5,1.1,0.4l10.6-3.1c0.4-0.1,0.8,0.1,1,0.4l10.6,23.3c0.2,0.4,0.7,0.5,1.1,0.4l10.6-3.1c0.4-0.1,0.8,0.1,1,0.4L85.7,84.8c0.2,0.4,0.7,0.5,1.1,0.4l10.6-3.1c0.4-0.1,0.8,0.1,1,0.4l2.4,4.2c0.2,0.4,0,0.8-0.4,1L2.6,97.9c-0.4,0.1-0.8-0.1-1-0.4L-1.5,74.2c-0.2-0.4,0-0.8,0.4-1l10.6-3.1c0.4-0.1,0.8,0.1,1,0.4l10.6,23.3c0.2,0.4,0.7,0.5,1.1,0.4l10.6-3.1c0.4-0.1,0.8,0.1,1,0.4l10.6,23.3c0.2,0.4,0.7,0.5,1.1,0.4l10.6-3.1c0.4-0.1,0.8,0.1,1,0.4l10.6,23.3c0.2,0.4,0.7,0.5,1.1,0.4l10.6-3.1c0.4-0.1,0.8,0.1,1,0.4l3.5,6.1c0.2,0.4,0,0.8-0.4,1l-78.2,22.7c-0.4,0.1-0.8-0.1-1-0.4L-1.5,2.6C-1.7,2.2-1.5,1.7-1,1.5L84.8-1.5c0.4-0.1,0.8,0.1,1,0.4l2.4,4.2c0.2,0.4,0,0.8-0.4,1L2.6,14.3c-0.4,0.1-0.8-0.1-1-0.4L-1.5-8.8c-0.2-0.4,0-0.8,0.4-1L84.8-12.7c0.4-0.1,0.8,0.1,1,0.4l2.4,4.2c0.2,0.4,0,0.8-0.4,1L2.6,2.1c-0.4,0.1-0.8-0.1-1-0.4L-1.5-21.2c-0.2-0.4,0-0.8,0.4-1l85.7-24.8c0.4-0.1,0.8,0.1,1,0.4l2.4,4.2c0.2,0.4,0,0.8-0.4,1L2.6-10.6c-0.4,0.1-0.8-0.1-1-0.4l-3.5-6.1C-2.1-17.5,-1.9-18,-1.5-18.1l85.7-24.8c0.4-0.1,0.8,0.1,1,0.4l3.5,6.1c0.2,0.4,0,0.8-0.4,1L2.6-6.3c-0.4,0.1-0.8-0.1-1-0.4L-1.5-29.6c-0.2-0.4,0-0.8,0.4-1L84.8-33.5c0.4-0.1,0.8,0.1,1,0.4l3.5,6.1c0.2,0.4,0,0.8-0.4,1L2.6-15.7c-0.4,0.1-0.8-0.1-1-0.4L-1.5-38.9c-0.2-0.4,0-0.8,0.4-1l85.7-24.8c0.4-0.1,0.8,0.1,1,0.4L85.7-57.4c0.2,0.4,0,0.8-0.4,1l-85.7,24.8c-0.4,0.1-0.8-0.1-1-0.4L-1.5-55.9c-0.2-0.4,0-0.8,0.4-1l85.7-24.8c0.4-0.1,0.8,0.1,1,0.4l3.5,6.1c0.2,0.4,0,0.8-0.4,1L2.6-45.2c-0.4,0.1-0.8-0.1-1-0.4L-1.5-68.5c-0.2-0.4,0-0.8,0.4-1l85.7-24.8c0.4-0.1,0.8,0.1,1,0.4l3.5,6.1c0.2,0.4,0,0.8-0.4,1L2.6-74.8c-0.4,0.1-0.8-0.1-1-0.4L-1.5-98.1c-0.2-0.4,0-0.8,0.4-1l85.7-24.8c0.4-0.1,0.8,0.1,1,0.4l3.5,6.1c0.2,0.4,0,0.8-0.4,1L2.6-94c-0.4,0.1-0.8-0.1-1-0.4l-3.5-6.1c-0.2-0.4,0-0.8,0.4-1l85.7-24.8c0.4-0.1,0.8,0.1,1,0.4l3.5,6.1c0.2,0.4,0,0.8-0.4,1l-85.7,24.8c-0.4,0.1-0.8-0.1-1-0.4l-3.5-6.1c-0.2-0.4,0-0.8,0.4-1l85.7-24.8c0.4-0.1,0.8,0.1,1,0.4l3.5,6.1c0.2,0.4,0,0.8-0.4,1L2.6-123.6c-0.4,0.1-0.8-0.1-1-0.4l-3.5-6.1c-0.2-0.4,0-0.8,0.4-1l85.7-24.8c0.4-0.1,0.8,0.1,1,0.4l3.5,6.1c0.2,0.4,0,0.8-0.4,1L2.6-112.9c-0.4,0.1-0.8-0.1-1-0.4l-3.5-6.1c-0.2-0.4,0-0.8,0.4-1l85.7-24.8c0.4-0.1,0.8,0.1,1,0.4l3.5,6.1c0.2,0.4,0,0.8-0.4,1l-85.7,24.8c-0.4,0.1-0.8-0.1-1-0.4l-3.5-6.1c-0.2-0.4,0-0.8,0.4-1l85.7-24.8c0.4-0.1,0.8,0.1,1,0.4l3.5,6.1c0.2,0.4,0,0.8-0.4,1l-85.7,24.8c-0.4,0.1-0.8-0.1-1-0.4l-3.5-6.1c-0.2-0.4,0-0.8,0.4-1l85.7-24.8c0.4-0.1,0.8,0.1,1,0.4l3.5,6.1c0.2,0.4,0,0.8-0.4,1l-85.7,24.8c-0.4,0.1-0.8-0.1-1-0.4L-1.5-167.5c-0.2-0.4,0-0.8,0.4-1l85.7-24.8c0.4-0.1,0.8,0.1,1,0.4l3.5,6.1c0.2,0.4,0,0.8-0.4,1l-85.7,24.8c-0.4,0.1-0.8-0.1-1-0.4l-3.5-6.1c-0.2-0.4,0-0.8,0.4-1l85.7-24.8c0.4-0.1,0.8,0.1,1,0.4l3.5,6.1c0.2,0.4,0,0.8-0.4,1l-85.7,24.8c-0.4,0.1-0.8-0.1-1-0.4l-3.5-6.1c-0.2-0.4,0-0.8,0.4-1l85.7-24.8c0.4-0.1,0.8,0.1,1,0.4l3.5,6.1c0.2,0.4,0,0.8-0.4,1l-85.7,24.8c-0.4,0.1-0.8-0.1-1-0.4l-3.5-6.1c-0.2-0.4,0-0.8,0.4-1l85.7-24.8c0.4-0.1,0.8,0.1,1,0.4l3.5,6.1c0.2,0.4,0,0.8-0.4,1l-85.7,24.8c-0.4,0.1-0.8-0.1-1-0.4l-3.5-6.1c-0.2-0.4,0-0.8,0.4-1l85.7-24.8c0.4-0.1,0.8,0.1,1,0.4l3.5,6.1c0.2,0.4,0,0.8-0.4,1l-85.7,24.8c-0.4,0.1-0.8-0.1-1-0.4L-1.5-235.5c-0.2-0.4,0-0.8,0.4-1l85.7-24.8c0.4-0.1,0.8,0.1,1,0.4l3.5,6.1c0.2,0.4,0,0.8-0.4,1l-85.7,24.8c-0.4,0.1-0.8-0.1-1-0.4l-3.5-6.1c-0.2-0.4,0-0.8,0.4-1l85.7-24.8c0.4-0.1,0.8,0.1,1,0.4l3.5,6.1c0.2,0.4,0,0.8-0.4,1l-85.7,24.8c-0.4,0.1-0.8-0.1-1-0.4l-3.5-6.1c-0.2-0.4,0-0.8,0.4-1l85.7-24.8c0.4-0.1,0.8,0.1,1,0.4l3.5,6.1c0.2,0.4,0,0.8-0.4,1l-85.7,24.8c-0.4,0.1-0.8-0.1-1-0.4l-3.5-6.1c-0.2-0.4,0-0.8,0.4-1l85.7-24.8c0.4-0.1,0.8,0.1,1,0.4l3.5,6.1c0.2,0.4,0,0.8-0.4,1l-85.7,24.8c-0.4,0.1-0.8-0.1-1-0.4l-3.5-6.1c-0.2-0.4,0-0.8,0.4-1l85.7-24.8c0.4-0.1,0.8,0.1,1,0.4l3.5,6.1c0.2,0.4,0,0.8-0.4,1l-85.7,24.8c-0.4,0.1-0.8-0.1-1-0.4l-3.5-6.1c-0.2-0.4,0-0.8,0.4-1l85.7-24.8c0.4-0.1,0.8,0.1,1,0.4l3.5,6.1c0.2,0.4,0,0.8-0.4,1l-85.7,24.8c-0.4,0.1-0.8-0.1-1-0.4l-3.5-6.1c-0.2-0.4,0-0.8,0.4-1l85.7-24.8c0.4-0.1,0.8,0.1,1,0.4l3.5,6.1c0.2,0.4,0,0.8-0.4,1l-85.7,24.8c-0.4,0.1-0.8-0.1-1-0.4l-3.5-6.1c-0.2-0.4,0-0.8,0.4-1l85.7-24.8c0.4-0.1,0.8,0.1,1,0.4l3.5,6.1c0.2,0.4,0,0.8-0.4,1l-85.7,24.8c-0.4,0.1-0.8-0.1-1-0.4l-3.5-6.1c-0.2-0.4,0-0.8,0.4-1l85.7-24.8c0.4-0.1,0.8,0.1,1,0.4l3.5,6.1c0.2,0.4,0,0.8-0.4,1l-85.7,24.8c-0.4,0.1-0.8-0.1-1-0.4l-3.5-6.1c-0.2-0.4,0-0.8,0.4-1l85.7-24.8c0.4-0.1,0.8,0.1,1,0.4l3.5,6.1c0.2,0.4,0,0.8-0.4,1l-85.7,24.8c-0.4,0.1-0.8-0.1-1-0.4l-3.5-6.1c-0.2-0.4,0-0.8,0.4-1l85.7-24.8c0.4-0.1,0.8,0.1,1,0.4l3.5,6.1c0.2,0.4,0,0.8-0.4,1l-85.7,24.8c-0.4,0.1-0.8-0.1-1-0.4l-3.5-6.1c-0.2-0.4,0-0.8,0.4-1l85.7-24.8c0.4-0.1,0.8,0.1,1,0.4l3.5,6.1c0.2,0.4,0,0.8-0.4,1l-85.7,24.8c-0.4,0.1-0.8-0.1-1-0.4l-3.5-6.1c-0.2-0.4,0-0.8,0.4-1l85.7-24.8c0.4-0.1,0.8,0.1,1,0.4l3.5,6.1c0.2,0.4,0,0.8-0.4,1l-85.7,24.8c-0.4,0.1-0.8-0.1-1-0.4l-3.5-6.1c-0.2-0.4,0-0.8,0.4-1l85.7-24.8c0.4-0.1,0.8,0.1,1,0.4l3.5,6.1c0.2,0.4,0,0.8-0.4,1l-85.7,24.8c-0.4,0.1-0.8-0.1-1-0.4l-3.5-6.1c-0.2-0.4,0-0.8,0.4-1l85.7-24.8c0.4-0.1,0.8,0.1,1,0.4l3.5,6.1c0.2,0.4,0,0.8-0.4,1l-85.7,24.8c-0.4,0.1-0.8-0.1-1-0.4l-3.5-6.1c-0.2-0.4,0-0.8,0.4-1l85.7-24.8c0.4-0.1,0.8,0.1,1,0.4l3.5,6.1c0.2,0.4,0,0.8-0.4,1l-85.7,24.8c-0.4,0.1-0.8-0.1-1-0.4l-3.5-6.1c-0.2-0.4,0-0.8,0.4-1l85.7-24.8c0.4-0.1,0.8,0.1,1,0.4l3.5,6.1c0.2,0.4,0,0.8-0.4,1l-85.7,24.8c-0.4,0.1-0.8-0.1-1-0.4l-3.5-6.1c-0.2-0.4,0-0.8,0.4-1l85.7-24.8c0.4-0.1,0.8,0.1,1,0.4l3.5,6.1c0.2,0.4,0,0.8-0.4,1l-85.7,24.8c-0.4,0.1-0.8-0.1-1-0.4l-3.5-6.1c-0.2-0.4,0-0.8,0.4-1l85.7-24.8c0.4-0.1,0.8,0.1,1,0.4l3.5,6.1c0.2,0.4,0,0.8-0.4,1l-85.7,24.8c-0.4,0.1-0.8-0.1-1-0.4l-3.5-6.1c-0.2-0.4,0-0.8,0.4-1l85.7-24.8c0.4-0.1,0.8,0.1,1,0.4l3.5,6.1c0.2,0.4,0,0.8-0.4,1l-85.7,24.8c-0.4,0.1-0.8-0.1-1-0.4l-3.5-6.1c-0.2-0.4,0-0.8,0.4-1l85.7-24.8c0.4-0.1,0.8,0.1,1,0.4l3.5,6.1c0.2,0.4,0,0.8-0.4,1l-85.7,24.8c-0.4,0.1-0.8-0.1-1-0.4l-3.5-6.1c-0.2-0.4,0-0.8,0.4-1l85.7-24.8c0.4-0.1,0.8,0.1,1,0.4l3.5,6.1c0.2,0.4,0,0.8-0.4,1l-85.7,24.8c-0.4,0.1-0.8-0.1-1-0.4l-3.5-6.1c-0.2-0.4,0-0.8,0.4-1l85.7-24.8c0.4-0.1,0.8,0.1,1,0.4l3.5,6.1c0.2,0.4,0,0.8-0.4,1l-85.7,24.8c-0.4,0.1-0.8-0.1-1-0.4l-3.5-6.1c-0.2-0.4,0-0.8,0.4-1l85.7-24.8c0.4-0.1,0.8,0.1,1,0.4l3.5,6.1c0.2,0.4,0,0.8-0.4,1l-85.7,24.8c-0.4,0.1-0.8-0.1-1-0.4l-3.5-6.1c-0.2-0.4,0-0.8,0.4-1l85.7-24.8c0.4-0.1,0.8,0.1,1,0.4l3.5,6.1c0.2,0.4,0,0.8-0.4,1l-85.7,24.8c-0.4,0.1-0.8-0.1-1-0.4l-3.5-6.1c-0.2-0.4,0-0.8,0.4-1l85.7-24.8c0.4-0.1,0.8,0.1,1,0.4l3.5,6.1c0.2,0.4,0,0.8-0.4,1l-85.7,24.8c-0.4,0.1-0.8-0.1-1-0.4l-3.5-6.1c-0.2-0.4,0-0.8,0.4-1l85.7-24.8c0.4-0.1,0.8,0.1,1,0.4l3.5,6.1c0.2,0.4,0,0.8-0.4,1l-85.7,24.8c-0.4,0.1-0.8-0.1-1-0.4l-3.5-6.1c-0.2-0.4,0-0.8,0.4-1l85.7-24.8c0.4-0.1,0.8,0.1,1,0.4l3.5,6.1c0.2,0.4,0,0.8-0.4,1l-85.7,24.8c-0.4,0.1-0.8-0.1-1-0.4l-3.5-6.1c-0.2-0.4,0-0.8,0.4-1l85.7-24.8c0.4-0.1,0.8,0.1,1,0.4l3.5,6.1c0.2,0.4,0,0.8-0.4,1l-85.7,24.8c-0.4,0.1-0.8-0.1-1-0.4l-3.5-6.1c-0.2-0.4,0-0.8,0.4-1l85.7-24.8c0.4-0.1,0.8,0.1,1,0.4l3.5,6.1c0.2,0.4,0,0.8-0.4,1l-85.7,24.8c-0.4,0.1-0.8-0.1-1-0.4l-3.5-6.1c-0.2-0.4,0-0.8,0.4-1l85.7-24.8c0.4-0.1,0.8,0.1,1,0.4l3.5,6.1c0.2,0.4,0,0.8-0.4,1l-85.7,24.8c-0.4,0.1-0.8-0.1-1-0.4l-3.5-6.1c-0.2-0.4,0-0.8,0.4-1l85.7-24.8c0.4-0.1,0.8,0.1,1,0.4l3.5,6.1c0.2,0.4,0,0.8-0.4,1l-85.7,24.8c-0.4,0.1-0.8-0.1-1-0.4l-3.5-6.1c-0.2-0.4,0-0.8,0.4-1l85.7-24.8c0.4-0.1,0.8,0.1,1,0.4l3.5,6.1c0.2,0.4,0,0.8-0.4,1l-85.7,24.8c-0.4,0.1-0.8-0.1-1-0.4l-3.5-6.1c-0.2-0.4,0-0.8,0.4-1l85.7-24.8c0.4-0.1,0.8,0.1,1,0.4l3.5,6.1c0.2,0.4,0,0.8-0.4,1l-85.7,24.8c-0.4,0.1-0.8-0.1-1-0.4l-3.5-6.1c-0.2-0.4,0-0.8,0.4-1l85.7-24.8c0.4-0.1,0.8,0.1,1,0.4l3.5,6.1c0.2,0.4,0,0.8-0.4,1l-85.7,24.8c-0.4,0.1-0.8-0.1-1-0.4l-3.5-6.1c-0.2-0.4,0-0.8,0.4-1l85.7-24.8c0.4-0.1,0.8,0.1,1,0.4l3.5,6.1c0.2,0.4,0,0.8-0.4,1l-85.7,24.8c-0.4,0.1-0.8-0.1-1-0.4l-3.5-6.1c-0.2-0.4,0-0.8,0.4-1l85.7-24.8c0.4-0.1,0.8,0.1,1,0.4l3.5,6.1c0.2,0.4,0,0.8-0.4,1l-85.7,24.8c-0.4,0.1-0.8-0.1-1-0.4l-3.5-6.1c-0.2-0.4,0-0.8,0.4-1l85.7-24.8c0.4-0.1,0.8,0.1,1,0.4l3.5,6.1c0.2,0.4,0,0.8-0.4,1l-85.7,24.8c-0.4,0.1-0.8-0.1-1-0.4l-3.5-6.1c-0.2-0.4,0-0.8,0.4-1l85.7-24.8c0.4-0.1,0.8,0.1,1,0.4l3.5,6.1c0.2,0.4,0,0.8-0.4,1l-85.7,24.8c-0.4,0.1-0.8-0.1-1-0.4l-3.5-6.1c-0.2-0.4,0-0.8,0.4-1l85.7-24.8c0.4-0.1,0.8,0.1,1,0.4l3.5,6.1c0.2,0.4,0,0.8-0.4,1l-85.7,24.8c-0.4,0.1-0.8-0.1-1-0.4l-3.5-6.1c-0.2-0.4,0-0.8,0.4-1l85.7-24.8c0.4-0.1,0.8,0.1,1,0.4l3.5,6.1c0.2,0.4,0,0.8-0.4,1l-85.7,24.8c-0.4,0.1-0.8-0.1-1-0.4l-3.5-6.1c-0.2-0.4,0-0.8,0.4-1l85.7-24.8c0.4-0.1,0.8,0.1,1,0.4l3.5,6.1c0.2,0.4,0,0.8-0.4,1l-85.7,24.8c-0.4,0.1-0.8-0.1-1-0.4l-3.5-6.1c-0.2-0.4,0-0.8,0.4-1l85.7-24.8c0.4-0.1,0.8,0.1,1,0.4l3.5,6.1c0.2,0.4,0,0.8-0.4,1l-85.7,24.8c-0.4,0.1-0.8-0.1-1-0.4l-3.5-6.1c-0.2-0.4,0-0.8,0.4-1l85.7-24.8c0.4-0.1,0.8,0.1,1,0.4l3.5,6.1c0.2,0.4,0,0.8-0.4,1l-85.7,24.8c-0.4,0.1-0.8-0.1-1-0.4l-3.5-6.1c-0.2-0.4,0-0.8,0.4-1l85.7-24.8c0.4-0.1,0.8,0.1,1,0.4l3.5,6.1c0.2,0.4,0,0.8-0.4,1l-85.7,24.8c-0.4,0.1-0.8-0.1-1-0.4l-3.5-6.1c-0.2-0.4,0-0.8,0.4-1l85.7-24.8c0.4-0.1,0.8,0.1,1,0.4l3.5,6.1c0.2,0.4,0,0.8-0.4,1l-85.7,24.8c-0.4,0.1-0.8-0.1-1-0.4l-3.5-6.1c-0.2-0.4,0-0.8,0.4-1l85.7-24.8c0.4-0.1,0.8,0.1,1,0.4l3.5,6.1c0.2,0.4,0,0.8-0.4,1l-85.7,24.8c-0.4,0.1-0.8-0.1-1-0.4l-3.5-6.1c-0.2-0.4,0-0.8,0.4-1l85.7-24.8c0.4-0.1,0.8,0.1,1,0.4l3.5,6.1c0.2,0.4,0,0.8-0.4,1l-85.7,24.8c-0.4,0.1-0.8-0.1-1-0.4l-3.5-6.1c-0.2-0.4,0-0.8,0.4-1l85.7-24.8c0.4-0.1,0.8,0.1,1,0.4l3.5,6.1c0.2,0.4,0,0.8-0.4,1l-85.7,24.8c-0.4,0.1-0.8-0.1-1-0.4l-3.5-6.1c-0.2-0.4,0-0.8,0.4-1l85.7-24.8c0.4-0.1,0.8,0.1,1,0.4l3.5,6.1c0.2,0.4,0,0.8-0.4,1l-85.7,24.8c-0.4,0.1-0.8-0.1-1-0.4l-3.5-6.1c-0.2-0.4,0-0.8,0.4-1l85.7-24.8c0.4-0.1,0.8,0.1,1,0.4l3.5,6.1c0.2,0.4,0,0.8-0.4,1l-85.7,24.8c-0.4,0.1-0.8-0.1-1-0.4l-3.5-6.1c-0.2-0.4,0-0.8,0.4-1l85.7-24.8c0.4-0.1,0.8,0.1,1,0.4l3.5,6.1c0.2,0.4,0,0.8-0.4,1l-85.7,24.8c-0.4,0.1-0.8-0.1-1-0.4l-3.5-6.1c-0.2-0.4,0-0.8,0.4-1l85.7-24.8c0.4-0.1,0.8,0.1,1,0.4l3.5,6.1c0.2,0.4,0,0.8-0.4,1l-85.7,24.8c-0.4,0.1-0.8-0.1-1-0.4l-3.5-6.1c-0.2-0.4,0-0.8,0.4-1l85.7-24.8c0.4-0.1,0.8,0.1,1,0.4l3.5,6.1c0.2,0.4,0,0.8-0.4,1l-85.7,24.8c-0.4,0.1-0.8-0.1-1-0.4l-3.5-6.1c-0.2-0.4,0-0.8,0.4-1l85.7-24.8c0.4-0.1,0.8,0.1,1,0.4l3.5,6.1c0.2,0.4,0,0.8-0.4,1l-85.7,24.8c-0.4,0.1-0.8-0.1-1-0.4l-3.5-6.1c-0.2-0.4,0-0.8,0.4-1l85.7-24.8c0.4-0.1,0.8,0.1,1,0.4l3.5,6.1c0.2,0.4,0,0.8-0.4,1l-85.7,24.8c-0.4,0.1-0.8-0.1-1-0.4l-3.5-6.1c-0.2-0.4,0-0.8,0.4-1l85.7-24.8c0.4-0.1,0.8,0.1,1,0.4l3.5,6.1c0.2,0.4,0,0.8-0.4,1l-85.7,24.8c-0.4,0.1-0.8-0.1-1-0.4l-3.5-6.1c-0.2-0.4,0-0.8,0.4-1l85.7-24.8c0.4-0.1,0.8,0.1,1,0.4l3.5,6.1c0.2,0.4,0,0.8-0.4,1l-85.7,24.8c-0.4,0.1-0.8-0.1-1-0.4l-3.5-6.1c-0.2-0.4,0-0.8,0.4-1l85.7-24.8c0.4-0.1,0.8,0.1,1,0.4l3.5,6.1c0.2,0.4,0,0.8-0.4,1l-85.7,24.8c-0.4,0.1-0.8-0.1-1-0.4l-3.5-6.1c-0.2-0.4,0-0.8,0.4-1l85.7-24.8c0.4-0.1,0.8,0.1,1,0.4l3.5,6.1c0.2,0.4,0,0.8-0.4,1l-85.7,24.8c-0.4,0.1-0.8-0.1-1-0.4l-3.5-6.1c-0.2-0.4,0-0.8,0.4-1l85.7-24.8c0.4-0.1,0.8,0.1,1,0.4l3.5,6.1c0.2,0.4,0,0.8-0.4,1l-85.7,24.8c-0.4,0.1-0.8-0.1-1-0.4l-3.5-6.1c-0.2-0.4,0-0.8,0.4-1l85.7-24.8c0.4-0.1,0.8,0.1,1,0.4l3.5,6.1c0.2,0.4,0,0.8-0.4,1l-85.7,24.8c-0.4,0.1-0.8-0.1-1-0.4l-3.5-6.1c-0.2-0.4,0-0.8,0.4-1l85.7-24.8c0.4-0.1,0.8,0.1,1,0.4l3.5,6.1c0.2,0.4,0,0.8-0.4,1l-85.7,24.8c-0.4,0.1-0.8-0.1-1-0.4l-3.5-6.1c-0.2-0.4,0-0.8,0.4-1l85.7-24.8c0.4-0.1,0.8,0.1,1,0.4l3.5,6.1c0.2,0.4,0,0.8-0.4,1l-85.7,24.8c-0.4,0.1-0.8-0.1-1-0.4l-3.5-6.1c-0.2-0.4,0-0.8,0.4-1l85.7-24.8c0.4-0.1,0.8,0.1,1,0.4l3.5,6.1c0.2,0.4,0,0.8-0.4,1l-85.7,24.8c-0.4,0.1-0.8-0.1-1-0.4l-3.5-6.1c-0.2-0.4,0-0.8,0.4-1l85.7-24.8c0.4-0.1,0.8,0.1,1,0.4l3.5,6.1c0.2,0.4,0,0.8-0.4,1l-85.7,24.8c-0.4,0.1-0.8-0.1-1-0.4l-3.5-6.1c-0.2-0.4,0-0.8,0.4-1l85.7-24.8c0.4-0.1,0.8,0.1,1,0.4l3.5,6.1c0.2,0.4,0,0.8-0.4,1l-85.7,24.8c-0.4,0.1-0.8-0.1-1-0.4l-3.5-6.1c-0.2-0.4,0-0.8,0.4-1l85.7-24.8c0.4-0.1,0.8,0.1,1,0.4l3.5,6.1c0.2,0.4,0,0.8-0.4,1l-85.7,24.8c-0.4,0.1-0.8-0.1-1-0.4l-3.5-6.1c-0.2-0.4,0-0.8,0.4-1l85.7-24.8c0.4-0.1,0.8,0.1,1,0.4l3.5,6.1c0.2,0.4,0,0.8-0.4,1l-85.7,24.8c-0.4,0.1-0.8-0.1-1-0.4l-3.5-6.1c-0.2-0.4,0-0.8,0.4-1l85.7-24.8c0.4-0.1,0.8,0.1,1,0.4l3.5,6.1c0.2,0.4,0,0.8-0.4,1l-85.7,24.8c-0.4,0.1-0.8-0.1-1-0.4l-3.5-6.1c-0.2-0.4,0-0.8,0.4-1l85.7-24.8c0.4-0.1,0.8,0.1,1,0.4l3.5,6.1c0.2,0.4,0,0.8-0.4,1l-85.7,24.8c-0.4,0.1-0.8-0.1-1-0.4l-3.5-6.1c-0.2-0.4,0-0.8,0.4-1l85.7-24.8c0.4-0.1,0.8,0.1,1,0.4l3.5,6.1c0.2,0.4,0,0.8-0.4,1l-85.7,24.8c-0.4,0.1-0.8-0.1-1-0.4l-3.5-6.1c-0.2-0.4,0-0.8,0.4-1l85.7-24.8c0.4-0.1,0.8,0.1,1,0.4l3.5,6.1c0.2,0.4,0,0.8-0.4,1l-85.7,24.8c-0.4,0.1-0.8-0.1-1-0.4l-3.5-6.1c-0.2-0.4,0-0.8,0.4-1l85.7-24.8c0.4-0.1,0.8,0.1,1,0.4l3.5,6.1c0.2,0.4,0,0.8-0.4,1l-85.7,24.8c-0.4,0.1-0.8-0.1-1-0.4l-3.5-6.1c-0.2-0.4,0-0.8,0.4-1l85.7-24.8c0.4-0.1,0.8,0.1,1,0.4l3.5,6.1c0.2,0.4,0,0.8-0.4,1l-85.7,24.8c-0.4,0.1-0.8-0.1-1-0.4l-3.5-6.1c-0.2-0.4,0-0.8,0.4-1l85.7-24.8c0.4-0.1,0.8,0.1,1,0.4l3.5,6.1c0.2,0.4,0,0.8-0.4,1l-85.7,24.8c-0.4,0.1-0.8-0.1-1-0.4l-3.5-6.1c-0.2-0.4,0-0.8,0.4-1l85.7-24.8c0.4-0.1,0.8,0.1,1,0.4l3.5,6.1c0.2,0.4,0,0.8-0.4,1l-85.7,24.8c-0.4,0.1-0.8-0.1-1-0.4l-3.5-6.1c-0.2-0.4,0-0.8,0.4-1l85.7-24.8c0.4-0.1,0.8,0.1,1,0.4l3.5,6.1c0.2,0.4,0,0.8-0.4,1l-85.7,24.8c-0.4,0.1-0.8-0.1-1-0.4l-3.5-6.1c-0.2-0.4,0-0.8,0.4-1l85.7-24.8c0.4-0.1,0.8,0.1,1,0.4l3.5,6.1c0.2,0.4,0,0.8-0.4,1l-85.7,24.8c-0.4,0.1-0.8-0.1-1-0.4l-3.5-6.1c-0.2-0.4,0-0.8,0.4-1l85.7-24.8c0.4-0.1,0.8,0.1,1,0.4l3.5,6.1c0.2,0.4,0,0.8-0.4,1l-85.7,24.8c-0.4,0.1-0.8-0.1-1-0.4l-3.5-6.1c-0.2-0.4,0-0.8,0.4-1l85.7-24.8c0.4-0.1,0.8,0.1,1,0.4l3.5,6.1c0.2,0.4,0,0.8-0.4,1l-85.7,24.8c-0.4,0.1-0.8-0.1-1-0.4l-3.5-6.1c-0.2-0.4,0-0.8,0.4-1l85.7-24.8c0.4-0.1,0.8,0.1,1,0.4l3.5,6.1c0.2,0.4,0,0.8-0.4,1l-85.7,24.8c-0.4,0.1-0.8-0.1-1-0.4l-3.5-6.1c-0.2-0.4,0-0.8,0.4-1l85.7-24.8c0.4-0.1,0.8,0.1,1,0.4l3.5,6.1c0.2,0.4,0,0.8-0.4,1l-85.7,24.8c-0.4,0.1-0.8-0.1-1-0.4l-3.5-6.1c-0.2-0.4,0-0.8,0.4-1l85.7-24.8c0.4-0.1,0.8,0.1,1,0.4l3.5,6.1c0.2,0.4,0,0.8-0.4,1l-85.7,24.8c-0.4,0.1-0.8-0.1-1-0.4l-3.5-6.1c-0.2-0.4,0-0.8,0.4-1l85.7-24.8c0.4-0.1,0.8,0.1,1,0.4l3.5,6.1c0.2,0.4,0,0.8-0.4,1l-85.7,24.8c-0.4,0.1-0.8-0.1-1-0.4l-3.5-6.1c-0.2-0.4,0-0.8,0.4-1l85.7-24.8c0.4-0.1,0.8,0.1,1,0.4l3.5,6.1c0.2,0.4,0,0.8-0.4,1l-85.7,24.8c-0.4,0.1-0.8-0.1-1-0.4l-3.5-6.1c-0.2-0.4,0-0.8,0.4-1l85.7-24.8c0.4-0.1,0.8,0.1,1,0.4l3.5,6.1c0.2,0.4,0,0.8-0.4,1l-85.7,24.8c-0.4,0.1-0.8-0.1-1-0.4l-3.5-6.1c-0.2-0.4,0-0.8,0.4-1l85.7-24.8c0.4-0.1,0.8,0.1,1,0.4l3.5,6.1c0.2,0.4,0,0.8-0.4,1l-85.7,24.8c-0.4,0.1-0.8-0.1-1-0.4l-3.5-6.1c-0.2-0.4,0-0.8,0.4-1l85.7-24.8c0.4-0.1,0.8,0.1,1,0.4l3.5,6.1c0.2,0.4,0,0.8-0.4,1l-85.7,24.8c-0.4,0.1-0.8-0.1-1-0.4l-3.5-6.1c-0.2-0.4,0-0.8,0.4-1l85.7-24.8c0.4-0.1,0.8,0.1,1,0.4l3.5,6.1c0.2,0.4,0,0.8-0.4,1l-85.7,24.8c-0.4,0.1-0.8-0.1-1-0.4l-3.5-6.1c-0.2-0.4,0-0.8,0.4-1l85.7-24.8c0.4-0.1,0.8,0.1,1,0.4l3.5,6.1c0.2,0.4,0,0.8-0.4,1l-85.7,24.8c-0.4,0.1-0.8-0.1-1-0.4l-3.5-6.1c-0.2-0.4,0-0.8,0.4-1l85.7-24.8c0.4-0.1,0.8,0.1,1,0.4l3.5,6.1c0.2,0.4,0,0.8-0.4,1l-85.7,24.8c-0.4,0.1-0.8-0.1-1-0.4l-3.5-6.1c-0.2-0.4,0-0.8,0.4-1l85.7-24.8c0.4-0.1,0.8,0.1,1,0.4l3.5,6.1c0.2,0.4,0,0.8-0.4,1l-85.7,24.8c-0.4,0.1-0.8-0.1-1-0.4l-3.5-6.1c-0.2-0.4,0-0.8,0.4-1l85.7-24.8c0.4-0.1,0.8,0.1,1,0.4l3.5,6.1c0.2,0.4,0,0.8-0.4,1l-85.7,24.8c-0.4,0.1-0.8-0.1-1-0.4l-3.5-6.1c-0.2-0.4,0-0.8,0.4-1l85.7-24.8c0.4-0.1,0.8,0.1,1,0.4l3.5,6.1c0.2,0.4,0,0.8-0.4,1l-85.7,24.8c-0.4,0.1-0.8-0.1-1-0.4l-3.5-6.1c-0.2-0.4,0-0.8,0.4-1l85.7-24.8c0.4-0.1,0.8,0.1,1,0.4l3.5,6.1c0.2,0.4,0,0.8-0.4,1l-85.7,24.8c-0.4,0.1-0.8-0.1-1-0.4l-3.5-6.1c-0.2-0.4,0-0.8,0.4-1l85.7-24.8c0.4-0.1,0.8,0.1,1,0.4l3.5,6.1c0.2,0.4,0,0.8-0.4,1l-85.7,24.8c-0.4,0.1-0.8-0.1-1-0.4l-3.5-6.1c-0.2-0.4,0-0.8,0.4-1l85.7-24.8c0.4-0.1,0.8,0.1,1,0.4l3.5,6.1c0.2,0.4,0,0.8-0.4,1l-85.7,24.8c-0.4,0.1-0.8-0.1-1-0.4l-3.5-6.1c-0.2-0.4,0-0.8,0.4-1l85.7-24.8c0.4-0.1,0.8,0.1,1,0.4l3.5,6.1c0.2,0.4,0,0.8-0.4,1l-85.7,24.8c-0.4,0.1-0.8-0.1-1-0.4l-3.5-6.1c-0.2-0.4,0-0.8,0.4-1l85.7-24.8c0.4-0.1,0.8,0.1,1,0.4l3.5,6.1c0.2,0.4,0,0.8-0.4,1l-85.7,24.8c-0.4,0.1-0.8-0.1-1-0.4l-3.5-6.1c-0.2-0.4,0-0.8,0.4-1l85.7-24.8c0.4-0.1,0.8,0.1,1,0.4l3.5,6.1c0.2,0.4,0,0.8-0.4,1l-85.7,24.8c-0.4,0.1-0.8-0.1-1-0.4l-3.5-6.1c-0.2-0.4,0-0.8,0.4-1l85.7-24.8c0.4-0.1,0.8,0.1,1,0.4l3.5,6.1c0.2,0.4,0,0.8-0.4,1l-85.7,24.8c-0.4,0.1-0.8-0.1-1-0.4l-3.5-6.1c-0.2-0.4,0-0.8,0.4-1l85.7-24.8c0.4-0.1,0.8,0.1,1,0.4l3.5,6.1c0.2,0.4,0,0.8-0.4,1l-85.7,24.8c-0.4,0.1-0.8-0.1-1-0.4l-3.5-6.1c-0.2-0.4,0-0.8,0.4-1l85.7-24.8c0.4-0.1,0.8,0.1,1,0.4l3.5,6.1c0.2,0.4,0,0.8-0.4,1l-85.7,24.8c-0.4,0.1-0.8-0.1-1-0.4l-3.5-6.1c-0.2-0.4,0-0.8,0.4-1l85.7-24.8c0.4-0.1,0.8,0.1,1,0.4l3.5,6.1c0.2,0.4,0,0.8-0.4,1l-85.7,24.8c-0.4,0.1-0.8-0.1-1-0.4l-3.5-6.1c-0.2-0.4,0-0.8,0.4-1l85.7-24.8c0.4-0.1,0.8,0.1,1,0.4l3.5,6.1c0.2,0.4,0,0.8-0.4,1l-85.7,24.8c-0.4,0.1-0.8-0.1-1-0.4l-3.5-6.1c-0.2-0.4,0-0.8,0.4-1l85.7-24.8c0.4-0.1,0.8,0.1,1,0.4l3.5,6.1c0.2,0.4,0,0.8-0.4,1l-85.7,24.8c-0.4,0.1-0.8-0.1-1-0.4l-3.5-6.1c-0.2-0.4,0-0.8,0.4-1l85.7-24.8c0.4-0.1,0.8,0.1,1,0.4l3.5,6.1c0.2,0.4,0,0.8-0.4,1l-85.7,24.8c-0.4,0.1-0.8-0.1-1-0.4l-3.5-6.1c-0.2-0.4,0-0.8,0.4-1l85.7-24.8c0.4-0.1,0.8,0.1,1,0.4l3.5,6.1c0.2,0.4,0,0.8-0.4,1l-85.7,24.8c-0.4,0.1-0.8-0.1-1-0.4l-3.5-6.1c-0.2-0.4,0-0.8,0.4-1l85.7-24.8c0.4-0.1,0.8,0.1,1,0.4l3.5,6.1c0.2,0.4,0,0.8-0.4,1l-85.7,24.8c-0.4,0.1-0.8-0.1-1-0.4l-3.5-6.1c-0.2-0.4,0-0.8,0.4-1l85.7-24.8c0.4-0.1,0.8,0.1,1,0.4l3.5,6.1c0.2,0.4,0,0.8-0.4,1l-85.7,24.8c-0.4,0.1-0.8-0.1-1-0.4l-3.5-6.1c-0.2-0.4,0-0.8,0.4-1l85.7-24.8c0.4-0.1,0.8,0.1,1,0.4l3.5,6.1c0.2,0.4,0,0.8-0.4,1l-85.7,24.8c-0.4,0.1-0.8-0.1-1-0.4l-3.5-6.1c-0.2-0.4,0-0.8,0.4-1l85.7-24.8c0.4-0.1,0.8,0.1,1,0.4l3.5,6.1c0.2,0.4,0,0.8-0.4,1l-85.7,24.8c-0.4,0.1-0.8-0.1-1-0.4l-3.5-6.1c-0.2-0.4,0-0.8,0.4-1l85.7-24.8c0.4-0.1,0.8,0.1,1,0.4l3.5,6.1c0.2,0.4,0,0.8-0.4,1l-85.7,24.8c-0.4,0.1-0.8-0.1-1-0.4l-3.5-6.1c-0.2-0.4,0-0.8,0.4-1l85.7-24.8c0.4-0.1,0.8,0.1,1,0.4l3.5,6.1c0.2,0.4,0,0.8-0.4,1l-85.7,24.8c-0.4,0.1-0.8-0.1-1-0.4l-3.5-6.1c-0.2-0.4,0-0.8,0.4-1l85.7-24.8c0.4-0.1,0.8,0.1,1,0.4l3.5,6.1c0.2,0.4,0,0.8-0.4,1l-85.7,24.8c-0.4,0.1-0.8-0.1-1-0.4l-3.5-6.1c-0.2-0.4,0-0.8,0.4-1l85.7-24.8c0.4-0.1,0.8,0.1,1,0.4l3.5,6.1c0.2,0.4,0,0.8-0.4,1l-85.7,24.8c-0.4,0.1-0.8-0.1-1-0.4l-3.5-6.1c-0.2-0.4,0-0.8,0.4-1l85.7-24.8c0.4-0.1,0.8,0.1,1,0.4l3.5,6.1c0.2,0.4,0,0.8-0.4,1l-85.7,24.8c-0.4,0.1-0.8-0.1-1-0.4l-3.5-6.1c-0.2-0.4,0-0.8,0.4-1l85.7-24.8c0.4-0.1,0.8,0.1,1,0.4l3.5,6.1c0.2,0.4,0,0.8-0.4,1l-85.7,24.8c-0.4,0.1-0.8-0.1-1-0.4l-3.5-6.1c-0.2-0.4,0-0.8,0.4-1l85.7-24.8c0.4-0.1,0.8,0.1,1,0.4l3.5,6.1c0.2,0.4,0,0.8-0.4,1l-85.7,24.8c-0.4,0.1-0.8-0.1-1-0.4l-3.5-6.1c-0.2-0.4,0-0.8,0.4-1l85.7-24.8c0.4-0.1,0.8,0.1,1,0.4l3.5,6.1c0.2,0.4,0,0.8-0.4,1l-85.7,24.8c-0.4,0.1-0.8-0.1-1-0.4l-3.5-6.1c-0.2-0.4,0-0.8,0.4-1l85.7-24.8c0.4-0.1,0.8,0.1,1,0.4l3.5,6.1c0.2,0.4,0,0.8-0.4,1l-85.7,24.8c-0.4,0.1-0.8-0.1-1-0.4l-3.5-6.1c-0.2-0.4,0-0.8,0.4-1l85.7-24.8c0.4-0.1,0.8,0.1,1,0.4l3.5,6.1c0.2,0.4,0,0.8-0.4,1l-85.7,24.8c-0.4,0.1-0.8-0.1-1-0.4l-3.5-6.1c-0.2-0.4,0-0.8,0.4-1l85.7-24.8c0.4-0.1,0.8,0.1,1,0.4l3.5,6.1c0.2,0.4,0,0.8-0.4,1l-85.7,24.8c-0.4,0.1-0.8-0.1-1-0.4l-3.5-6.1c-0.2-0.4,0-0.8,0.4-1l85.7-24.8c0.4-0.1,0.8,0.1,1,0.4l3.5,6.1c0.2,0.4,0,0.8-0.4,1l-85.7,24.8c-0.4,0.1-0.8-0.1-1-0.4l-3.5-6.1c-0.2-0.4,0-0.8,0.4-1l85.7-24.8c0.4-0.1,0.8,0.1,1,0.4l3.5,6.1c0.2,0.4,0,0.8-0.4,1l-85.7,24.8c-0.4,0.1-0.8-0.1-1-0.4l-3.5-6.1c-0.2-0.4,0-0.8,0.4-1l85.7-24.8c0.4-0.1,0.8,0.1,1,0.4l3.5,6.1c0.2,0.4,0,0.8-0.4,1l-85.7,24.8c-0.4,0.1-0.8-0.1-1-0.4l-3.5-6.1c-0.2-0.4,0-0.8,0.4-1l85.7-24.8c0.4-0.1,0.8,0.1,1,0.4l3.5,6.1c0.2,0.4,0,0.8-0.4,1l-85.7,24.8c-0.4,0.1-0.8-0.1-1-0.4l-3.5-6.1c-0.2-0.4,0-0.8,0.4-1l85.7-24.8c0.4-0.1,0.8,0.1,1,0.4l3.5,6.1c0.2,0.4,0,0.8-0.4,1l-85.7,24.8c-0.4,0.1-0.8-0.1-1-0.4l-3.5-6.1c-0.2-0.4,0-0.8,0.4-1l85.7-24.8c0.4-0.1,0.8,0.1,1,0.4l3.5,6.1c0.2,0.4,0,0.8-0.4,1l-85.7,24.8c-0.4,0.1-0.8-0.1-1-0.4l-3.5-6.1c-0.2-0.4,0-0.8,0.4-1l85.7-24.8c0.4-0.1,0.8,0.1,1,0.4l3.5,6.1c0.2,0.4,0,0.8-0.4,1l-85.7,24.8c-0.4,0.1-0.8-0.1-1-0.4l-3.5-6.1c-0.2-0.4,0-0.8,0.4-1l85.7-24.8c0.4-0.1,0.8,0.1,1,0.4l3.5,6.1c0.2,0.4,0,0.8-0.4,1l-85.7,24.8c-0.4,0.1-0.8-0.1-1-0.4l-3.5-6.1c-0.2-0.4,0-0.8,0.4-1l85.7-24.8c0.4-0.1,0.8,0.1,1,0.4l3.5,6.1c0.2,0.4,0,0.8-0.4,1l-85.7,24.8c-0.4,0.1-0.8-0.1-1-0.4l-3.5-6.1c-0.2-0.4,0-0.8,0.4-1l85.7-24.8c0.4-0.1,0.8,0.1,1,0.4l3.5,6.1c0.2,0.4,0,0.8-0.4,1l-85.7,24.8c-0.4,0.1-0.8-0.1-1-0.4l-3.5-6.1c-0.2-0.4,0-0.8,0.4-1l85.7-24.8c0.4-0.1,0.8,0.1,1,0.4l3.5,6.1c0.2,0.4,0,0.8-0.4,1l-85.7,24.8c-0.4,0.1-0.8-0.1-1-0.4l-3.5-6.1c-0.2-0.4,0-0.8,0.4-1l85.7-24.8c0.4-0.1,0.8,0.1,1,0.4l3.5,6.1c0.2,0.4,0,0.8-0.4,1l-85.7,24.8c-0.4,0.1-0.8-0.1-1-0.4l-3.5-6.1c-0.2-0.4,0-0.8,0.4-1l85.7-24.8c0.4-0.1,0.8,0.1,1,0.4l3.5,6.1c0.2,0.4,0,0.8-0.4,1l-85.7,24.8c-0.4,0.1-0.8-0.1-1-0.4l-3.5-6.1c-0.2-0.4,0-0.8,0.4-1l85.7-24.8c0.4-0.1,0.8,0.1,1,0.4l3.5,6.1c0.2,0.4,0,0.8-0.4,1l-85.7,24.8c-0.4,0.1-0.8-0.1-1-0.4l-3.5-6.1c-0.2-0.4,0-0.8,0.4-1l85.7-24.8c0.4-0.1,0.8,0.1,1,0.4l3.5,6.1c0.2,0.4,0,0.8-0.4,1l-85.7,24.8c-0.4,0.1-0.8-0.1-1-0.4l-3.5-6.1c-0.2-0.4,0-0.8,0.4-1l85.7-24.8c0.4-0.1,0.8,0.1,1,0.4l3.5,6.1c0.2,0.4,0,0.8-0.4,1l-85.7,24.8c-0.4,0.1-0.8-0.1-1-0.4l-3.5-6.1c-0.2-0.4,0-0.8,0.4-1l85.7-24.8c0.4-0.1,0.8,0.1,1,0.4l3.5,6.1c0.2,0.4,0,0.8-0.4,1l-85.7,24.8c-0.4,0.1-0.8-0.1-1-0.4l-3.5-6.1c-0.2-0.4,0-0.8,0.4-1l85.7-24.8c0.4-0.1,0.8,0.1,1,0.4l3.5,6.1c0.2,0.4,0,0.8-0.4,1l-85.7,24.8c-0.4,0.1-0.8-0.1-1-0.4l-3.5-6.1c-0.2-0.4,0-0.8,0.4-1l85.7-24.8c0.4-0.1,0.8,0.1,1,0.4l3.5,6.1c0.2,0.4,0,0.8-0.4,1l-85.7,24.8c-0.4,0.1-0.8-0.1-1-0.4l-3.5-6.1c-0.2-0.4,0-0.8,0.4-1l85.7-24.8c0.4-0.1,0.8,0.1,1,0.4l3.5,6.1c0.2,0.4,0,0.8-0.4,1l-85.7,24.8c-0.4,0.1-0.8-0.1-1-0.4l-3.5-6.1c-0.2-0.4,0-0.8,0.4-1l85.7-24.8c0.4-0.1,0.8,0.1,1,0.4l3.5,6.1c0.2,0.4,0,0.8-0.4,1l-85.7,24.8c-0.4,0.1-0.8-0.1-1-0.4l-3.5-6.1c-0.2-0.4,0-0.8,0.4-1l85.7-24.8c0.4-0.1,0.8,0.1,1,0.4l3.5,6.1c0.2,0.4,0,0.8-0.4,1l-85.7,24.8c-0.4,0.1-0.8-0.1-1-0.4l-3.5-6.1c-0.2-0.4,0-0.8,0.4-1l85.7-24.8c0.4-0.1,0.8,0.1,1,0.4l3.5,6.1c0.2,0.4,0,0.8-0.4,1l-85.7,24.8c-0.4,0.1-0.8-0.1-1-0.4l-3.5-6.1c-0.2-0.4,0-0.8,0.4-1l85.7-24.8c0.4-0.1,0.8,0.1,1,0.4l3.5,6.1c0.2,0.4,0,0.8-0.4,1l-85.7,24.8c-0.4,0.1-0.8-0.1-1-0.4l-3.5-6.1c-0.2-0.4,0-0.8,0.4-1l85.7-24.8c0.4-0.1,0.8,0.1,1,0.4l3.5,6.1c0.2,0.4,0,0.8-0.4,1l-85.7,24.8c-0.4,0.1-0.8-0.1-1-0.4l-3.5-6.1c-0.2-0.4,0-0.8,0.4-1l85.7-24.8c0.4-0.1,0.8,0.1,1,0.4l3.5,6.1c0.2,0.4,0,0.8-0.4,1l-85.7,24.8c-0.4,0.1-0.8-0.1-1-0.4l-3.5-6.1c-0.2-0.4,0-0.8,0.4-1l85.7-24.8c0.4-0.1,0.8,0.1,1,0.4l3.5,6.1c0.2,0.4,0,0.8-0.4,1l-85.7,24.8c-0.4,0.1-0.8-0.1-1-0.4l-3.5-6.1c-0.2-0.4,0-0.8,0.4-1l85.7-24.8c0.4-0.1,0.8,0.1,1,0.4l3.5,6.1c0.2,0.4,0,0.8-0.4,1l-85.7,24.8c-0.4,0.1-0.8-0.1-1-0.4l-3.5-6.1c-0.2-0.4,0-0.8,0.4-1l85.7-24.8c0.4-0.1,0.8,0.1,1,0.4l3.5,6.1c0.2,0.4,0,0.8-0.4,1l-85.7,24.8c-0.4,0.1-0.8-0.1-1-0.4l-3.5-6.1c-0.2-0.4,0-0.8,0.4-1l85.7-24.8c0.4-0.1,0.8,0.1,1,0.4l3.5,6.1c0.2,0.4,0,0.8-0.4,1l-85.7,24.8c-0.4,0.1-0.8-0.1-1-0.4l-3.5-6.1c-0.2-0.4,0-0.8,0.4-1l85.7-24.8c0.4-0.1,0.8,0.1,1,0.4l3.5,6.1c0.2,0.4,0,0.8-0.4,1l-85.7,24.8c-0.4,0.1-0.8-0.1-1-0.4l-3.5-6.1c-0.2-0.4,0-0.8,0.4-1l85.7-24.8c0.4-0.1,0.8,0.1,1,0.4l3.5,6.1c0.2,0.4,0,0.8-0.4,1l-85.7,24.8c-0.4,0.1-0.8-0.1-1-0.4l-3.5-6.1c-0.2-0.4,0-0.8,0.4-1l85.7-24.8c0.4-0.1,0.8,0.1,1,0.4l3.5,6.1c0.2,0.4,0,0.8-0.4,1l-85.7,24.8c-0.4,0.1-0.8-0.1-1-0.4l-3.5-6.1c-0.2-0.4,0-0.8,0.4-1l85.7-24.8c0.4-0.1,0.8,0.1,1,0.4l3.5,6.1c0.2,0.4,0,0.8-0.4,1l-85.7,24.8c-0.4,0.1-0.8-0.1-1-0.4l-3.5-6.1c-0.2-0.4,0-0.8,0.4-1l85.7-24.8c0.4-0.1,0.8,0.1,1,0.4l3.5,6.1c0.2,0.4,0,0.8-0.4,1l-85.7,24.8c-0.4,0.1-0.8-0.1-1-0.4l-3.5-6.1c-0.2-0.4,0-0.8,0.4-1l85.7-24.8c0.4-0.1,0.8,0.1,1,0.4l3.5,6.1c0.2,0.4,0,0.8-0.4,1l-85.7,24.8c-0.4,0.1-0.8-0.1-1-0.4l-3.5-6.1c-0.2-0.4,0-0.8,0.4-1l85.7-24.8c0.4-0.1,0.8,0.1,1,0.4l3.5,6.1c0.2,0.4,0,0.8-0.4,1l-85.7,24.8c-0.4,0.1-0.8-0.1-1-0.4l-3.5-6.1c-0.2-0.4,0-0.8,0.4-1l85.7-24.8c0.4-0.1,0.8,0.1,1,0.4l3.5,6.1c0.2,0.4,0,0.8-0.4,1l-85.7,24.8c-0.4,0.1-0.8-0.1-1-0.4l-3.5-6.1c-0.2-0.4,0-0.8,0.4-1l85.7-24.8c0.4-0.1,0.8,0.1,1,0.4l3.5,6.1c0.2,0.4,0,0.8-0.4,1l-85.7,24.8c-0.4,0.1-0.8-0.1-1-0.4l-3.5-6.1c-0.2-0.4,0-0.8,0.4-1l85.7-24.8c0.4-0.1,0.8,0.1,1,0.4l3.5,6.1c0.2,0.4,0,0.8-0.4,1l-85.7,24.8c-0.4,0.1-0.8-0.1-1-0.4l-3.5-6.1c-0.2-0.4,0-0.8,0.4-1l85.7-24.8c0.4-0.1,0.8,0.1,1,0.4l3.5,6.1c0.2,0.4,0,0.8-0.4,1l-85.7,24.8c-0.4,0.1-0.8-0.1-1-0.4l-3.5-6.1c-0.2-0.4,0-0.8,0.4-1l85.7-24.8c0.4-0.1,0.8,0.1,1,0.4l3.5,6.1c0.2,0.4,0,0.8-0.4,1l-85.7,24.8c-0.4,0.1-0.8-0.1-1-0.4l-3.5-6.1c-0.2-0.4,0-0.8,0.4-1l85.7-24.8c0.4-0.1,0.8,0.1,1,0.4l3.5,6.1c0.2,0.4,0,0.8-0.4,1l-85.7,24.8c-0.4,0.1-0.8-0.1-1-0.4l-3.5-6.1c-0.2-0.4,0-0.8,0.4-1l85.7-24.8c0.4-0.1,0.8,0.1,1,0.4l3.5,6.1c0.2,0.4,0,0.8-0.4,1l-85.7,24.8c-0.4,0.1-0.8-0.1-1-0.4l-3.5-6.1c-0.2-0.4,0-0.8,0.4-1l85.7-24.8c0.4-0.1,0.8,0.1,1,0.4l3.5,6.1c0.2,0.4,0,0.8-0.4,1l-85.7,24.8c-0.4,0.1-0.8-0.1-1-0.4l-3.5-6.1c-0.2-0.4,0-0.8,0.4-1l85.7-24.8c0.4-0.1,0.8,0.1,1,0.4l3.5,6.1c0.2,0.4,0,0.8-0.4,1l-85.7,24.8c-0.4,0.1-0.8-0.1-1-0.4l-3.5-6.1c-0.2-0.4,0-0.8,0.4-1l85.7-24.8c0.4-0.1,0.8,0.1,1,0.4l3.5,6.1c0.2,0.4,0,0.8-0.4,1l-85.7,24.8c-0.4,0.1-0.8-0.1-1-0.4l-3.5-6.1c-0.2-0.4,0-0.8,0.4-1l85.7-24.8c0.4-0.1,0.8,0.1,1,0.4l3.5,6.1c0.2,0.4,0,0.8-0.4,1l-85.7,24.8c-0.4,0.1-0.8-0.1-1-0.4l-3.5-6.1c-0.2-0.4,0-0.8,0.4-1l85.7-24.8c0.4-0.1,0.8,0.1,1,0.4l3.5,6.1c0.2,0.4,0,0.8-0.4,1l-85.7,24.8c-0.4,0.1-0.8-0.1-1-0.4l-3.5-6.1c-0.2-0.4,0-0.8,0.4-1l85.7-24.8c0.4-0.1,0.8,0.1,1,0.4l3.5,6.1c0.2,0.4,0,0.8-0.4,1l-85.7,24.8c-0.4,0.1-0.8-0.1-1-0.4l-3.5-6.1c-0.2-0.4,0-0.8,0.4-1l85.7-24.8c0.4-0.1,0.8,0.1,1,0.4l3.5,6.1c0.2,0.4,0,0.8-0.4,1l-85.7,24.8c-0.4,0.1-0.8-0.1-1-0.4l-3.5-6.1c-0.2-0.4,0-0.8,0.4-1l85.7-24.8c0.4-0.1,0.8,0.1,1,0.4l3.5,6.1c0.2,0.4,0,0.8-0.4,1l-85.7,24.8c-0.4,0.1-0.8-0.1-1-0.4l-3.5-6.1c-0.2-0.4,0-0.8,0.4-1l85.7-24.8c0.4-0.1,0.8,0.1,1,0.4l3.5,6.1c0.2,0.4,0,0.8-0.4,1l-85.7,24.8c-0.4,0.1-0.8-0.1-1-0.4l-3.5-6.1c-0.2-0.4,0-0.8,0.4-1l85.7-24.8c0.4-0.1,0.8,0.1,1,0.4l3.5,6.1c0.2,0.4,0,0.8-0.4,1l-85.7,24.8c-0.4,0.1-0.8-0.1-1-0.4l-3.5-6.1c-0.2-0.4,0-0.8,0.4-1l85.7-24.8c0.4-0.1,0.8,0.1,1,0.4l3.5,6.1c0.2,0.4,0,0.8-0.4,1l-85.7,24.8c-0.4,0.1-0.8-0.1-1-0.4l-3.5-6.1c-0.2-0.4,0-0.8,0.4-1l85.7-24.8c0.4-0.1,0.8,0.1,1,0.4l3.5,6.1c0.2,0.4,0,0.8-0.4,1l-85.7,24.8c-0.4,0.1-0.8-0.1-1-0.4l-3.5-6.1c-0.2-0.4,0-0.8,0.4-1l85.7-24.8c0.4-0.1,0.8,0.1,1,0.4l3.5,6.1c0.2,0.4,0,0.8-0.4,1l-85.7,24.8c-0.4,0.1-0.8-0.1-1-0.4l-3.5-6.1c-0.2-0.4,0-0.8,0.4-1l85.7-24.8c0.4-0.1,0.8,0.1,1,0.4l3.5,6.1c0.2,0.4,0,0.8-0.4,1l-85.7,24.8c-0.4,0.1-0.8-0.1-1-0.4l-3.5-6.1c-0.2-0.4,0-0.8,0.4-1l85.7-24.8c0.4-0.1,0.8,0.1,1,0.4l3.5,6.1c0.2,0.4,0,0.8-0.4,1l-85.7,24.8c-0.4,0.1-0.8-0.1-1-0.4l-3.5-6.1c-0.2-0.4,0-0.8,0.4-1l85.7-24.8c0.4-0.1,0.8,0.1,1,0.4l3.5,6.1c0.2,0.4,0,0.8-0.4,1l-85.7,24.8c-0.4,0.1-0.8-0.1-1-0.4l-3.5-6.1c-0.2-0.4,0-0.8,0.4-1l85.7-24.8c0.4-0.1,0.8,0.1,1,0.4l3.5,6.1c0.2,0.4,0,0.8-0.4,1l-85.7,24.8c-0.4,0.1-0.8-0.1-1-0.4l-3.5-6.1c-0.2-0.4,0-0.8,0.4-1l85.7-24.8c0.4-0.1,0.8,0.1,1,0.4l3.5,6.1c0.2,0.4,0,0.8-0.4,1l-85.7,24.8c-0.4,0.1-0.8-0.1-1-0.4l-3.5-6.1c-0.2-0.4,0-0.8,0.4-1l85.7-24.8c0.4-0.1,0.8,0.1,1,0.4l3.5,6.1c0.2,0.4,0,0.8-0.4,1l-85.7,24.8c-0.4,0.1-0.8-0.1-1-0.4l-3.5-6.1c-0.2-0.4,0-0.8,0.4-1l85.7-24.8c0.4-0.1,0.8,0.1,1,0.4l3.5,6.1c0.2,0.4,0,0.8-0.4,1l-85.7,24.8c-0.4,0.1-0.8-0.1-1-0.4l-3.5-6.1c-0.2-0.4,0-0.8,0.4-1l85.7-24.8c0.4-0.1,0.8,0.1,1,0.4l3.5,6.1c0.2,0.4,0,0.8-0.4,1l-85.7,24.8c-0.4,0.1-0.8-0.1-1-0.4l-3.5-6.1c-0.2-0.4,0-0.8,0.4-1l85.7-24.8c0.4-0.1,0.8,0.1,1,0.4l3.5,6.1c0.2,0.4,0,0.8-0.4,1l-85.7,24.8c-0.4,0.1-0.8-0.1-1-0.4l-3.5-6.1c-0.2-0.4,0-0.8,0.4-1l85.7-24.8c0.4-0.1,0.8,0.1,1,0.4l3.5,6.1c0.2,0.4,0,0.8-0.4,1l-85.7,24.8c-0.4,0.1-0.8-0.1-1-0.4l-3.5-6.1c-0.2-0.4,0-0.8,0.4-1l85.7-24.8c0.4-0.1,0.8,0.1,1,0.4l3.5,6.1c0.2,0.4,0,0.8-0.4,1l-85.7,24.8c-0.4,0.1-0.8-0.1-1-0.4l-3.5-6.1c-0.2-0.4,0-0.8,0.4-1l85.7-24.8c0.4-0.1,0.8,0.1,1,0.4l3.5,6.1c0.2,0.4,0,0.8-0.4,1l-85.7,24.8c-0.4,0.1-0.8-0.1-1-0.4l-3.5-6.1c-0.2-0.4,0-0.8,0.4-1l85.7-24.8c0.4-0.1,0.8,0.1,1,0.4l3.5,6.1c0.2,0.4,0,0.8-0.4,1l-85.7,24.8c-0.4,0.1-0.8-0.1-1-0.4l-3.5-6.1c-0.2-0.4,0-0.8,0.4-1l85.7-24.8c0.4-0.1,0.8,0.1,1,0.4l3.5,6.1c0.2,0.4,0,0.8-0.4,1l-85.7,24.8c-0.4,0.1-0.8-0.1-1-0.4l-3.5-6.1c-0.2-0.4,0-0.8,0.4-1l85.7-24.8c0.4-0.1,0.8,0.1,1,0.4l3.5,6.1c0.2,0.4,0,0.8-0.4,1l-85.7,24.8c-0.4,0.1-0.8-0.1-1-0.4l-3.5-6.1c-0.2-0.4,0-0.8,0.4-1l85.7-24.8c0.4-0.1,0.8,0.1,1,0.4l3.5,6.1c0.2,0.4,0,0.8-0.4,1l-85.7,24.8c-0.4,0.1-0.8-0.1-1-0.4l-3.5-6.1c-0.2-0.4,0-0.8,0.4-1l85.7-24.8c0.4-0.1,0.8,0.1,1,0.4l3.5,6.1c0.2,0.4,0,0.8-0.4,1l-85.7,24.8c-0.4,0.1-0.8-0.1-1-0.4l-3.5-6.1c-0.2-0.4,0-0.8,0.4-1l85.7-24.8c0.4-0.1,0.8,0.1,1,0.4l3.5,6.1c0.2,0.4,0,0.8-0.4,1l-85.7,24.8c-0.4,0.1-0.8-0.1-1-0.4l-3.5-6.1c-0.2-0.4,0-0.8,0.4-1l85.7-24.8c0.4-0.1,0.8,0.1,1,0.4l3.5,6.1c0.2,0.4,0,0.8-0.4,1l-85.7,24.8c-0.4,0.1-0.8-0.1-1-0.4l-3.5-6.1c-0.2-0.4,0-0.8,0.4-1l85.7-24.8c0.4-0.1,0.8,0.1,1,0.4l3.5,6.1c0.2,0.4,0,0.8-0.4,1l-85.7,24.8c-0.4,0.1-0.8-0.1-1-0.4l-3.5-6.1c-0.2-0.4,0-0.8,0.4-1l85.7-24.8c0.4-0.1,0.8,0.1,1,0.4l3.5,6.1c0.2,0.4,0,0.8-0.4,1l-85.7,24.8c-0.4,0.1-0.8-0.1-1-0.4l-3.5-6.1c-0.2-0.4,0-0.8,0.4-1l85.7-24.8c0.4-0.1,0.8,0.1,1,0.4l3.5,6.1c0.2,0.4,0,0.8-0.4,1l-85.7,24.8c-0.4,0.1-0.8-0.1-1-0.4l-3.5-6.1c-0.2-0.4,0-0.8,0.4-1l85.7-24.8c0.4-0.1,0.8,0.1,1,0.4l3.5,6.1c0.2,0.4,0,0.8-0.4,1l-85.7,24.8c-0.4,0.1-0.8-0.1-1-0.4l-3.5-6.1c-0.2-0.4,0-0.8,0.4-1l85.7-24.8c0.4-0.1,0.8,0.1,1,0.4l3.5,6.1c0.2,0.4,0,0.8-0.4,1l-85.7,24.8c-0.4,0.1-0.8-0.1-1-0.4l-3.5-6.1c-0.2-0.4,0-0.8,0.4-1l85.7-24.8c0.4-0.1,0.8,0.1,1,0.4l3.5,6.1c0.2,0.4,0,0.8-0.4,1l-85.7,24.8c-0.4,0.1-0.8-0.1-1-0.4l-3.5-6.1c-0.2-0.4,0-0.8,0.4-1l85.7-24.8c0.4-0.1,0.8,0.1,1,0.4l3.5,6.1c0.2,0.4,0,0.8-0.4,1l-85.7,24.8c-0.4,0.1-0.8-0.1-1-0.4l-3.5-6.1c-0.2-0.4,0-0.8,0.4-1l85.7-24.8c0.4-0.1,0.8,0.1,1,0.4l3.5,6.1c0.2,0.4,0,0.8-0.4,1l-85.7,24.8c-0.4,0.1-0.8-0.1-1-0.4l-3.5-6.1c-0.2-0.4,0-0.8,0.4-1l85.7-24.8c0.4-0.1,0.8,0.1,1,0.4l3.5,6.1c0.2,0.4,0,0.8-0.4,1l-85.7,24.8c-0.4,0.1-0.8-0.1-1-0.4l-3.5-6.1c-0.2-0.4,0-0.8,0.4-1l85.7-24.8c0.4-0.1,0.8,0.1,1,0.4l3.5,6.1c0.2,0.4,0,0.8-0.4,1l-85.7,24.8c-0.4,0.1-0.8-0.1-1-0.4l-3.5-6.1c-0.2-0.4,0-0.8,0.4-1l85.7-24.8c0.4-0.1,0.8,0.1,1,0.4l3.5,6.1c0.2,0.4,0,0.8-0.4,1l-85.7,24.8c-0.4,0.1-0.8-0.1-1-0.4l-3.5-6.1c-0.2-0.4,0-0.8,0.4-1l85.7-24.8c0.4-0.1,0.8,0.1,1,0.4l3.5,6.1c0.2,0.4,0,0.8-0.4,1l-85.7,24.8c-0.4,0.1-0.8-0.1-1-0.4l-3.5-6.1c-0.2-0.4,0-0.8,0.4-1l85.7-24.8c0.4-0.1,0.8,0.1,1,0.4l3.5,6.1c0.2,0.4,0,0.8-0.4,1l-85.7,24.8c-0.4,0.1-0.8-0.1-1-0.4l-3.5-6.1c-0.2-0.4,0-0.8,0.4-1l85.7-24.8c0.4-0.1,0.8,0.1,1,0.4l3.5,6.1c0.2,0.4,0,0.8-0.4,1l-85.7,24.8c-0.4,0.1-0.8-0.1-1-0.4l-3.5-6.1c-0.2-0.4,0-0.8,0.4-1l85.7-24.8c0.4-0.1,0.8,0.1,1,0.4l3.5,6.1c0.2,0.4,0,0.8-0.4,1l-85.7,24.8c-0.4,0.1-0.8-0.1-1-0.4l-3.5-6.1c-0.2-0.4,0-0.8,0.4-1l85.7-24.8c0.4-0.1,0.8,0.1,1,0.4l3.5,6.1c0.2,0.4,0,0.8-0.4,1l-85.7,24.8c-0.4,0.1-0.8-0.1-1-0.4l-3.5-6.1c-0.2-0.4,0-0.8,0.4-1l85.7-24.8c0.4-0.1,0.8,0.1,1,0.4l3.5,6.1c0.2,0.4,0,0.8-0.4,1l-85.7,24.8c-0.4,0.1-0.8-0.1-1-0.4l-3.5-6.1c-0.2-0.4,0-0.8,0.4-1l85.7-24.8c0.4-0.1,0.8,0.1,1,0.4l3.5,6.1c0.2,0.4,0,0.8-0.4,1l-85.7,24.8c-0.4,0.1-0.8-0.1-1-0.4l-3.5-6.1c-0.2-0.4,0-0.8,0.4-1l85.7-24.8c0.4-0.1,0.8,0.1,1,0.4l3.5,6.1c0.2,0.4,0,0.8-0.4,1l-85.7,24.8c-0.4,0.1-0.8-0.1-1-0.4l-3.5-6.1c-0.2-0.4,0-0.8,0.4-1l85.7-24.8c0.4-0.1,0.8,0.1,1,0.4l3.5,6.1c0.2,0.4,0,0.8-0.4,1l-85.7,24.8c-0.4,0.1-0.8-0.1-1-0.4l-3.5-6.1c-0.2-0.4,0-0.8,0.4-1l85.7-24.8c0.4-0.1,0.8,0.1,1,0.4l3.5,6.1c0.2,0.4,0,0.8-0.4,1l-85.7,24.8c-0.4,0.1-0.8-0.1-1-0.4l-3.5-6.1c-0.2-0.4,0-0.8,0.4-1l85.7-24.8c0.4-0.1,0.8,0.1,1,0.4l3.5,6.1c0.2,0.4,0,0.8-0.4,1l-85.7,24.8c-0.4,0.1-0.8-0.1-1-0.4l-3.5-6.1c-0.2-0.4,0-0.8,0.4-1l85.7-24.8c0.4-0.1,0.8,0.1,1,0.4l3.5,6.1c0.2,0.4,0,0.8-0.4,1l-85.7,24.8c-0.4,0.1-0.8-0.1-1-0.4l-3.5-6.1c-0.2-0.4,0-0.8,0.4-1l85.7-24.8c0.4-0.1,0.8,0.1,1,0.4l3.5,6.1c0.2,0.4,0,0.8-0.4,1l-85.7,24.8c-0.4,0.1-0.8-0.1-1-0.4l-3.5-6.1c-0.2-0.4,0-0.8,0.4-1l85.7-24.8c0.4-0.1,0.8,0.1,1,0.4l3.5,6.1c0.2,0.4,0,0.8-0.4,1l-85.7,24.8c-0.4,0.1-0.8-0.1-1-0.4l-3.5-6.1c-0.2-0.4,0-0.8,0.4-1l85.7-24.8c0.4-0.1,0.8,0.1,1,0.4l3.5,6.1c0.2,0.4,0,0.8-0.4,1l-85.7,24.8c-0.4,0.1-0.8-0.1-1-0.4l-3.5-6.1c-0.2-0.4,0-0.8,0.4-1l85.7-24.8c0.4-0.1,0.8,0.1,1,0.4l3.5,6.1c0.2,0.4,0,0.8-0.4,1l-85.7,24.8c-0.4,0.1-0.8-0.1-1-0.4l-3.5-6.1c-0.2-0.4,0-0.8,0.4-1l85.7-24.8c0.4-0.1,0.8,0.1,1,0.4l3.5,6.1c0.2,0.4,0,0.8-0.4,1l-85.7,24.8C85.7,2.1,85.5,2.1,85.3,2L85.7,2.1z"/></svg>